<svg width="402" height="110" viewBox="0 0 402 110" fill="none" xmlns="http://www.w3.org/2000/svg">
<path d="M134.82 54.0618C134.82 72.413 119.886 87.3707 101.506 87.3707C87.5649 87.3707 75.5815 78.7563 70.6211 66.5396C69.2374 63.0938 68.3758 59.3609 68.2192 55.4453C68.2018 54.9754 68.1931 54.5142 68.1931 54.0618C68.1931 47.4313 70.1511 41.2446 73.4929 36.0499L68.1931 32.7346L78.2445 30.2286L84.8758 28.5841L86.2856 37.3551L87.4605 44.7687L82.5783 41.7145C80.2548 45.2646 78.8972 49.5196 78.8972 54.0618C78.8972 54.3924 78.9059 54.7231 78.9233 55.0537C79.0799 58.7866 80.1503 62.2846 81.9256 65.3388C85.8418 72.0997 93.1519 76.668 101.506 76.668C113.986 76.668 124.115 66.5134 124.115 54.0618C124.115 43.1241 116.335 33.9876 106.023 31.8993C104.561 31.5861 103.055 31.4294 101.506 31.4294C99.3655 31.4294 97.303 31.7427 95.3188 32.2909C95.1622 28.558 94.0918 25.06 92.3165 22.0319C88.4003 15.2709 81.0902 10.7027 72.7358 10.7027C60.4652 10.7027 50.4399 20.5179 50.1266 32.7346L42.1638 20.048C47.307 8.24892 59.0815 0 72.7358 0C86.6772 0 98.6606 8.61438 103.621 20.805C121.009 21.8753 134.82 36.3892 134.82 54.0618Z" fill="#2263AE"/>
<path d="M38.7959 31.7427C34.6709 32.7085 30.9636 34.7969 28.0134 37.6683C25.1416 40.4876 23.0008 44.0639 21.9565 48.0839C21.4604 49.9373 21.1993 51.8951 21.1993 53.9051C21.1993 65.0777 29.2666 74.3969 39.8924 76.3025C41.2239 76.5375 42.5814 76.668 43.9651 76.668C46.7587 76.668 49.4216 76.172 51.9018 75.2322C56.0007 73.7182 59.5514 71.0295 62.136 67.5837L68.2191 76.9551C65.2689 80.0615 61.6922 82.6197 57.7238 84.4209L69.7072 103.294L60.674 109.011L46.837 87.2663C45.8971 87.3359 44.9398 87.3707 43.9651 87.3707C25.5071 87.3707 10.4952 72.3608 10.4952 53.9051C10.4952 47.7968 12.14 42.0799 15.0119 37.1463L0 13.522L9.03322 7.77905L22.1914 28.5058C25.3766 25.7909 29.0577 23.6504 33.1044 22.2669L38.7959 31.7427Z" fill="#243243"/>
<path d="M172.798 11.674H166.667C166.555 10.8808 166.326 10.1763 165.981 9.56038C165.636 8.93515 165.192 8.40324 164.651 7.96465C164.11 7.52606 163.485 7.19011 162.775 6.95682C162.075 6.72353 161.315 6.60688 160.494 6.60688C159.01 6.60688 157.718 6.97548 156.616 7.71269C155.515 8.44057 154.661 9.50439 154.055 10.9042C153.448 12.2946 153.145 13.9836 153.145 15.9713C153.145 18.0149 153.448 19.732 154.055 21.1224C154.671 22.5128 155.529 23.5627 156.63 24.2719C157.732 24.9811 159.005 25.3357 160.452 25.3357C161.264 25.3357 162.015 25.2284 162.705 25.0138C163.405 24.7991 164.026 24.4865 164.567 24.0759C165.108 23.656 165.556 23.1474 165.911 22.5502C166.275 21.9529 166.527 21.2717 166.667 20.5065L172.798 20.5345C172.639 21.8503 172.242 23.1194 171.608 24.3419C170.983 25.555 170.138 26.6421 169.074 27.6033C168.02 28.5552 166.76 29.311 165.295 29.8709C163.839 30.4215 162.192 30.6968 160.354 30.6968C157.797 30.6968 155.511 30.1182 153.495 28.9611C151.489 27.8039 149.902 26.1289 148.736 23.9359C147.579 21.743 147 19.0881 147 15.9713C147 12.8452 147.588 10.1856 148.764 7.99265C149.94 5.79968 151.535 4.1293 153.551 2.9815C155.567 1.82436 157.834 1.24579 160.354 1.24579C162.015 1.24579 163.555 1.47908 164.973 1.94567C166.401 2.41226 167.665 3.09348 168.766 3.98932C169.867 4.87584 170.763 5.96299 171.454 7.25077C172.154 8.53855 172.602 10.013 172.798 11.674Z" fill="#243243"/>
<path d="M183.163 30.7108C181.791 30.7108 180.569 30.4728 179.495 29.9969C178.422 29.5117 177.573 28.7978 176.948 27.8553C176.332 26.9034 176.024 25.7183 176.024 24.2999C176.024 23.1054 176.243 22.1023 176.682 21.2904C177.121 20.4785 177.718 19.8253 178.474 19.3307C179.23 18.8361 180.088 18.4629 181.049 18.2109C182.02 17.959 183.037 17.7816 184.101 17.679C185.351 17.5484 186.359 17.427 187.124 17.3151C187.889 17.1937 188.445 17.0164 188.79 16.7832C189.135 16.5499 189.308 16.2046 189.308 15.7473V15.6633C189.308 14.7768 189.028 14.0909 188.468 13.6057C187.917 13.1204 187.134 12.8778 186.116 12.8778C185.043 12.8778 184.189 13.1158 183.555 13.5917C182.92 14.0583 182.5 14.6462 182.295 15.3554L176.78 14.9075C177.06 13.601 177.61 12.4719 178.432 11.52C179.253 10.5589 180.312 9.82167 181.609 9.30842C182.916 8.78584 184.427 8.52456 186.144 8.52456C187.339 8.52456 188.482 8.66453 189.574 8.94448C190.675 9.22444 191.65 9.65836 192.499 10.2463C193.358 10.8342 194.034 11.59 194.529 12.5139C195.024 13.4284 195.271 14.5249 195.271 15.8033V30.3049H189.616V27.3234H189.448C189.103 27.9953 188.641 28.5878 188.062 29.1011C187.483 29.605 186.788 30.0016 185.976 30.2909C185.165 30.5708 184.227 30.7108 183.163 30.7108ZM184.871 26.5955C185.748 26.5955 186.522 26.4228 187.194 26.0776C187.866 25.723 188.393 25.247 188.776 24.6498C189.159 24.0526 189.35 23.376 189.35 22.6202V20.3385C189.163 20.4599 188.907 20.5718 188.58 20.6745C188.263 20.7678 187.903 20.8565 187.502 20.9404C187.101 21.0151 186.7 21.0851 186.298 21.1504C185.897 21.2064 185.533 21.2577 185.207 21.3044C184.507 21.407 183.895 21.5703 183.373 21.7943C182.85 22.0183 182.444 22.3215 182.155 22.7041C181.866 23.0774 181.721 23.544 181.721 24.1039C181.721 24.9158 182.015 25.5363 182.603 25.9656C183.2 26.3855 183.956 26.5955 184.871 26.5955Z" fill="#243243"/>
<path d="M199.897 38.3675V8.80451H205.776V12.4159H206.042C206.303 11.8373 206.681 11.2494 207.176 10.6522C207.68 10.0456 208.333 9.54172 209.135 9.14045C209.947 8.72985 210.955 8.52456 212.159 8.52456C213.727 8.52456 215.173 8.93515 216.498 9.75635C217.823 10.5682 218.882 11.7953 219.676 13.4377C220.469 15.0708 220.865 17.1191 220.865 19.5827C220.865 21.9809 220.478 24.0059 219.704 25.6576C218.938 27.3 217.893 28.5458 216.568 29.395C215.252 30.2349 213.778 30.6548 212.145 30.6548C210.988 30.6548 210.003 30.4635 209.191 30.0809C208.389 29.6983 207.731 29.2177 207.218 28.6391C206.705 28.0512 206.313 27.4587 206.042 26.8614H205.86V38.3675H199.897ZM205.734 19.5547C205.734 20.8331 205.911 21.9483 206.266 22.9001C206.621 23.852 207.134 24.5938 207.806 25.1257C208.478 25.6483 209.294 25.9096 210.255 25.9096C211.226 25.9096 212.047 25.6436 212.719 25.1117C213.391 24.5705 213.899 23.824 214.245 22.8721C214.599 21.9109 214.776 20.8051 214.776 19.5547C214.776 18.3136 214.604 17.2217 214.259 16.2792C213.913 15.3367 213.405 14.5995 212.733 14.0676C212.061 13.5357 211.235 13.2697 210.255 13.2697C209.285 13.2697 208.464 13.5264 207.792 14.0396C207.129 14.5529 206.621 15.2807 206.266 16.2232C205.911 17.1658 205.734 18.2762 205.734 19.5547Z" fill="#243243"/>
<path d="M224.841 30.3049V8.80451H230.804V30.3049H224.841ZM227.836 6.03298C226.95 6.03298 226.189 5.73903 225.555 5.15113C224.929 4.55389 224.617 3.84002 224.617 3.00949C224.617 2.1883 224.929 1.48375 225.555 0.895849C226.189 0.298616 226.95 0 227.836 0C228.723 0 229.479 0.298616 230.104 0.895849C230.738 1.48375 231.056 2.1883 231.056 3.00949C231.056 3.84002 230.738 4.55389 230.104 5.15113C229.479 5.73903 228.723 6.03298 227.836 6.03298Z" fill="#243243"/>
<path d="M247.017 8.80451V13.2837H234.069V8.80451H247.017ZM237.008 3.65338H242.971V23.698C242.971 24.2486 243.055 24.6778 243.223 24.9858C243.391 25.2844 243.624 25.4943 243.923 25.6157C244.231 25.737 244.586 25.7976 244.987 25.7976C245.267 25.7976 245.547 25.7743 245.827 25.7276C246.107 25.6716 246.321 25.6297 246.471 25.6017L247.408 30.0389C247.11 30.1322 246.69 30.2395 246.149 30.3608C245.607 30.4915 244.95 30.5708 244.175 30.5988C242.738 30.6548 241.478 30.4635 240.396 30.0249C239.322 29.5863 238.487 28.9051 237.89 27.9813C237.293 27.0574 236.999 25.8909 237.008 24.4818V3.65338Z" fill="#243243"/>
<path d="M257.032 30.7108C255.66 30.7108 254.438 30.4728 253.364 29.9969C252.291 29.5117 251.442 28.7978 250.817 27.8553C250.201 26.9034 249.893 25.7183 249.893 24.2999C249.893 23.1054 250.112 22.1023 250.551 21.2904C250.99 20.4785 251.587 19.8253 252.343 19.3307C253.098 18.8361 253.957 18.4629 254.918 18.2109C255.889 17.959 256.906 17.7816 257.97 17.679C259.22 17.5484 260.228 17.427 260.993 17.3151C261.758 17.1937 262.314 17.0164 262.659 16.7832C263.004 16.5499 263.177 16.2046 263.177 15.7473V15.6633C263.177 14.7768 262.897 14.0909 262.337 13.6057C261.786 13.1204 261.002 12.8778 259.985 12.8778C258.912 12.8778 258.058 13.1158 257.424 13.5917C256.789 14.0583 256.369 14.6462 256.164 15.3554L250.649 14.9075C250.929 13.601 251.479 12.4719 252.301 11.52C253.122 10.5589 254.181 9.82167 255.478 9.30842C256.785 8.78584 258.296 8.52456 260.013 8.52456C261.208 8.52456 262.351 8.66453 263.443 8.94448C264.544 9.22444 265.519 9.65836 266.368 10.2463C267.227 10.8342 267.903 11.59 268.398 12.5139C268.892 13.4284 269.14 14.5249 269.14 15.8033V30.3049H263.485V27.3234H263.317C262.971 27.9953 262.51 28.5878 261.931 29.1011C261.352 29.605 260.657 30.0016 259.845 30.2909C259.033 30.5708 258.096 30.7108 257.032 30.7108ZM258.74 26.5955C259.617 26.5955 260.391 26.4228 261.063 26.0776C261.735 25.723 262.262 25.247 262.645 24.6498C263.027 24.0526 263.219 23.376 263.219 22.6202V20.3385C263.032 20.4599 262.776 20.5718 262.449 20.6745C262.132 20.7678 261.772 20.8565 261.371 20.9404C260.97 21.0151 260.569 21.0851 260.167 21.1504C259.766 21.2064 259.402 21.2577 259.075 21.3044C258.376 21.407 257.764 21.5703 257.242 21.7943C256.719 22.0183 256.313 22.3215 256.024 22.7041C255.735 23.0774 255.59 23.544 255.59 24.1039C255.59 24.9158 255.884 25.5363 256.472 25.9656C257.069 26.3855 257.825 26.5955 258.74 26.5955Z" fill="#243243"/>
<path d="M279.729 1.63772V30.3049H273.766V1.63772H279.729Z" fill="#243243"/>
<path d="M317.798 10.4282H311.667C311.555 9.63503 311.326 8.93048 310.981 8.31459C310.636 7.68936 310.192 7.15745 309.651 6.71886C309.11 6.28027 308.485 5.94432 307.775 5.71103C307.075 5.47774 306.315 5.36109 305.494 5.36109C304.01 5.36109 302.718 5.7297 301.616 6.4669C300.515 7.19478 299.661 8.2586 299.055 9.65836C298.448 11.0488 298.145 12.7378 298.145 14.7255C298.145 16.7692 298.448 18.4862 299.055 19.8766C299.671 21.2671 300.529 22.3169 301.63 23.0261C302.732 23.7353 304.005 24.0899 305.452 24.0899C306.264 24.0899 307.015 23.9826 307.705 23.768C308.405 23.5533 309.026 23.2407 309.567 22.8301C310.108 22.4102 310.556 21.9016 310.911 21.3044C311.275 20.7072 311.527 20.0259 311.667 19.2607L317.798 19.2887C317.639 20.6045 317.242 21.8736 316.608 23.0961C315.983 24.3092 315.138 25.3964 314.074 26.3575C313.02 27.3094 311.76 28.0652 310.295 28.6251C308.839 29.1757 307.192 29.451 305.354 29.451C302.797 29.451 300.511 28.8724 298.495 27.7153C296.489 26.5582 294.902 24.8831 293.736 22.6901C292.579 20.4972 292 17.8423 292 14.7255C292 11.5994 292.588 8.93982 293.764 6.74686C294.94 4.55389 296.535 2.88351 298.551 1.73571C300.567 0.578569 302.834 0 305.354 0C307.015 0 308.555 0.233294 309.973 0.699881C311.401 1.16647 312.665 1.84769 313.766 2.74353C314.867 3.63005 315.763 4.7172 316.454 6.00498C317.154 7.29276 317.602 8.76718 317.798 10.4282Z" fill="#2263AE"/>
<path d="M327.995 0.391934V29.0591H322.032V0.391934H327.995Z" fill="#2263AE"/>
<path d="M342.486 29.479C340.312 29.479 338.431 29.0171 336.845 28.0932C335.268 27.1601 334.05 25.8629 333.192 24.2019C332.333 22.5315 331.904 20.5952 331.904 18.3929C331.904 16.1719 332.333 14.2309 333.192 12.5699C334.05 10.8995 335.268 9.60237 336.845 8.67853C338.431 7.74535 340.312 7.27877 342.486 7.27877C344.66 7.27877 346.536 7.74535 348.113 8.67853C349.699 9.60237 350.922 10.8995 351.78 12.5699C352.639 14.2309 353.068 16.1719 353.068 18.3929C353.068 20.5952 352.639 22.5315 351.78 24.2019C350.922 25.8629 349.699 27.1601 348.113 28.0932C346.536 29.0171 344.66 29.479 342.486 29.479ZM342.514 24.8598C343.503 24.8598 344.329 24.5798 344.992 24.0199C345.654 23.4507 346.153 22.6762 346.489 21.6963C346.835 20.7165 347.007 19.6013 347.007 18.3509C347.007 17.1004 346.835 15.9853 346.489 15.0055C346.153 14.0256 345.654 13.2511 344.992 12.6818C344.329 12.1126 343.503 11.828 342.514 11.828C341.515 11.828 340.676 12.1126 339.994 12.6818C339.322 13.2511 338.814 14.0256 338.469 15.0055C338.133 15.9853 337.965 17.1004 337.965 18.3509C337.965 19.6013 338.133 20.7165 338.469 21.6963C338.814 22.6762 339.322 23.4507 339.994 24.0199C340.676 24.5798 341.515 24.8598 342.514 24.8598Z" fill="#2263AE"/>
<path d="M370.733 19.9046V7.55872H376.696V29.0591H370.971V25.1537H370.747C370.262 26.4135 369.455 27.426 368.326 28.1912C367.206 28.9564 365.839 29.339 364.224 29.339C362.787 29.339 361.523 29.0124 360.431 28.3592C359.339 27.706 358.485 26.7775 357.869 25.5737C357.263 24.3699 356.955 22.9281 356.945 21.2484V7.55872H362.908V20.1846C362.918 21.4537 363.258 22.4569 363.93 23.1941C364.602 23.9313 365.503 24.2999 366.632 24.2999C367.35 24.2999 368.022 24.1366 368.647 23.81C369.273 23.474 369.777 22.9794 370.159 22.3262C370.551 21.673 370.742 20.8658 370.733 19.9046Z" fill="#2263AE"/>
<path d="M389.388 29.409C387.755 29.409 386.276 28.9891 384.951 28.1492C383.635 27.3 382.59 26.0542 381.816 24.4119C381.051 22.7601 380.668 20.7351 380.668 18.3369C380.668 15.8733 381.065 13.825 381.858 12.1919C382.651 10.5495 383.705 9.32242 385.021 8.51056C386.346 7.68936 387.797 7.27877 389.374 7.27877C390.578 7.27877 391.581 7.48406 392.384 7.89466C393.196 8.29593 393.849 8.79984 394.344 9.4064C394.848 10.0036 395.23 10.5915 395.491 11.1701H395.673V0.391934H401.622V29.0591H395.743V25.6157H395.491C395.211 26.2129 394.815 26.8055 394.302 27.3934C393.798 27.9719 393.14 28.4525 392.328 28.8351C391.525 29.2177 390.546 29.409 389.388 29.409ZM391.278 24.6638C392.239 24.6638 393.051 24.4025 393.714 23.8799C394.386 23.348 394.899 22.6062 395.253 21.6543C395.617 20.7025 395.799 19.5873 395.799 18.3089C395.799 17.0304 395.622 15.92 395.267 14.9775C394.913 14.035 394.4 13.3071 393.728 12.7938C393.056 12.2806 392.239 12.024 391.278 12.024C390.298 12.024 389.472 12.2899 388.801 12.8218C388.129 13.3537 387.62 14.0909 387.275 15.0334C386.93 15.976 386.757 17.0678 386.757 18.3089C386.757 19.5593 386.93 20.6652 387.275 21.6263C387.629 22.5782 388.138 23.3247 388.801 23.866C389.472 24.3979 390.298 24.6638 391.278 24.6638Z" fill="#2263AE"/>
<path d="M292 52.4767V49.2529H306.639V52.4767H301.182V67.7471H297.457V52.4767H292Z" fill="#243243"/>
<path d="M309.049 67.7471V49.2529H316.081C317.427 49.2529 318.576 49.5027 319.528 50.0024C320.485 50.496 321.213 51.1974 321.712 52.1065C322.217 53.0095 322.469 54.0721 322.469 55.2942C322.469 56.5223 322.214 57.5789 321.704 58.4639C321.193 59.3428 320.453 60.0171 319.484 60.4867C318.521 60.9563 317.355 61.1911 315.986 61.1911H311.277V58.0485H315.376C316.096 58.0485 316.693 57.9461 317.169 57.7414C317.645 57.5368 317.999 57.2297 318.231 56.8203C318.469 56.411 318.588 55.9022 318.588 55.2942C318.588 54.6801 318.469 54.1624 318.231 53.741C317.999 53.3195 317.642 53.0005 317.161 52.7837C316.685 52.561 316.084 52.4496 315.359 52.4496H312.818V67.7471H309.049ZM318.675 59.3308L323.105 67.7471H318.945L314.611 59.3308H318.675Z" fill="#243243"/>
<path d="M328.205 67.7471H324.166L330.32 49.2529H335.176L341.32 67.7471H337.282L332.817 53.4791H332.678L328.205 67.7471ZM327.952 60.4777H337.491V63.5299H327.952V60.4777Z" fill="#243243"/>
<path d="M349.784 67.7471H343.465V49.2529H349.836C351.629 49.2529 353.172 49.6231 354.466 50.3636C355.76 51.0981 356.755 52.1546 357.451 53.5333C358.153 54.9119 358.504 56.5615 358.504 58.4819C358.504 60.4084 358.153 62.064 357.451 63.4487C356.755 64.8333 355.754 65.8959 354.449 66.6364C353.149 67.3769 351.594 67.7471 349.784 67.7471ZM347.234 64.3969H349.627C350.741 64.3969 351.678 64.1922 352.438 63.7828C353.204 63.3674 353.779 62.7262 354.162 61.8593C354.55 60.9864 354.745 59.8606 354.745 58.4819C354.745 57.1153 354.55 55.9986 354.162 55.1317C353.779 54.2647 353.207 53.6266 352.447 53.2172C351.687 52.8078 350.75 52.6031 349.636 52.6031H347.234V64.3969Z" fill="#243243"/>
<path d="M365.064 49.2529V67.7471H361.296V49.2529H365.064Z" fill="#243243"/>
<path d="M383.073 49.2529V67.7471H379.818L372.064 56.1069H371.933V67.7471H368.165V49.2529H371.472L379.165 60.884H379.322V49.2529H383.073Z" fill="#243243"/>
<path d="M398.005 55.231C397.883 54.7915 397.712 54.4032 397.492 54.0661C397.271 53.7229 397.002 53.4339 396.682 53.1991C396.369 52.9583 396.009 52.7747 395.603 52.6483C395.203 52.5219 394.759 52.4587 394.272 52.4587C393.361 52.4587 392.56 52.6934 391.87 53.163C391.185 53.6326 390.651 54.3159 390.268 55.2129C389.885 56.1039 389.694 57.1936 389.694 58.4819C389.694 59.7703 389.882 60.866 390.26 61.769C390.637 62.6721 391.17 63.3614 391.861 63.837C392.551 64.3066 393.367 64.5414 394.307 64.5414C395.159 64.5414 395.888 64.3848 396.491 64.0718C397.1 63.7527 397.564 63.3042 397.883 62.7262C398.208 62.1483 398.371 61.465 398.371 60.6763L399.137 60.7937H394.541V57.8498H402V60.1797C402 61.8051 401.669 63.2018 401.008 64.3698C400.346 65.5317 399.435 66.4287 398.275 67.0608C397.115 67.6869 395.786 68 394.289 68C392.618 68 391.15 67.6177 389.885 66.8531C388.621 66.0825 387.634 64.9899 386.926 63.5751C386.224 62.1543 385.873 60.4686 385.873 58.5181C385.873 57.019 386.082 55.6825 386.5 54.5086C386.923 53.3286 387.515 52.3292 388.275 51.5105C389.035 50.6917 389.92 50.0686 390.93 49.6412C391.939 49.2137 393.033 49 394.211 49C395.22 49 396.16 49.1535 397.031 49.4606C397.901 49.7616 398.673 50.189 399.346 50.7429C400.024 51.2967 400.578 51.956 401.008 52.7205C401.437 53.4791 401.713 54.3159 401.835 55.231H398.005Z" fill="#243243"/>
<path d="M280 65H147V63H280V65Z" fill="#243243"/>
</svg>
